<?xml version="1.0" encoding="UTF-8" standalone="no"?>
<!DOCTYPE svg PUBLIC "-//W3C//DTD SVG 1.1//EN" "http://www.w3.org/Graphics/SVG/1.1/DTD/svg11.dtd">
<svg width="100%" height="100%" viewBox="0 0 100 89" version="1.1" xmlns="http://www.w3.org/2000/svg" xmlns:xlink="http://www.w3.org/1999/xlink" xml:space="preserve" xmlns:serif="http://www.serif.com/" style="fill-rule:evenodd;clip-rule:evenodd;stroke-linejoin:round;stroke-miterlimit:2;">
    <g transform="matrix(1,0,0,1,-0.421325,-5.78242)">
        <path d="M9.72,57.45C10.819,56.821 11.207,55.4 10.58,54.3L10,53.3L17.8,51.86L19.34,54.55C21.077,57.534 24.279,59.376 27.732,59.376C33.059,59.376 37.442,54.993 37.442,49.666C37.442,49.196 37.408,48.726 37.34,48.26L54.24,45.15L55.42,47.21C55.805,48.005 56.615,48.512 57.499,48.512C58.766,48.512 59.809,47.47 59.809,46.202C59.809,45.746 59.673,45.3 59.42,44.92L37.67,6.81C37.242,6.169 36.52,5.782 35.749,5.782C34.481,5.782 33.439,6.825 33.439,8.092C33.439,8.441 33.518,8.786 33.67,9.1L34.67,10.81L5.19,44.81L4.81,44.15C4.425,43.355 3.615,42.848 2.731,42.848C1.464,42.848 0.421,43.89 0.421,45.158C0.421,45.614 0.557,46.06 0.81,46.44L6.57,56.59C7.199,57.689 8.62,58.077 9.72,57.45ZM32.83,49.08C32.854,49.282 32.867,49.486 32.867,49.69C32.867,52.488 30.564,54.79 27.767,54.79C25.947,54.79 24.26,53.816 23.35,52.24L22.61,51L32.83,49.08ZM53.61,23C53.39,22.615 53.274,22.179 53.274,21.735C53.274,20.82 53.766,19.973 54.56,19.52L62.14,15.19C62.552,14.924 63.032,14.783 63.522,14.783C64.921,14.783 66.072,15.934 66.072,17.333C66.072,18.294 65.528,19.177 64.67,19.61L57.08,24C56.702,24.21 56.276,24.32 55.844,24.32C54.915,24.32 54.058,23.813 53.61,23ZM49.42,17.79C48.448,16.901 48.329,15.391 49.15,14.36L54.73,7.36C55.206,6.729 55.952,6.357 56.742,6.357C58.125,6.357 59.262,7.495 59.262,8.877C59.262,9.471 59.052,10.046 58.67,10.5L53.09,17.5C52.655,18.043 52.014,18.384 51.32,18.44L51.13,18.44C50.502,18.45 49.892,18.225 49.42,17.81L49.42,17.79ZM56,29.27C55.966,29.104 55.949,28.934 55.949,28.764C55.949,27.517 56.875,26.448 58.11,26.27L66.94,25C67.058,24.983 67.176,24.975 67.295,24.975C68.68,24.975 69.82,26.115 69.82,27.5C69.82,28.752 68.889,29.824 67.65,30L58.79,31.26L58.44,31.26C57.267,31.245 56.25,30.416 56,29.27ZM26,94.36C25.977,94.361 25.953,94.361 25.93,94.361C24.323,94.361 23,93.038 23,91.431C23,91.427 23,91.424 23,91.42L23,81.19C23,79.583 24.323,78.26 25.93,78.26L33.87,78.26C35.477,78.26 36.8,79.583 36.8,81.19L36.8,91.42C36.8,93.027 35.477,94.35 33.87,94.35L26,94.36ZM45.67,94.36C44.063,94.36 42.74,93.037 42.74,91.43L42.74,77.76C42.74,76.153 44.063,74.83 45.67,74.83L53.61,74.83C55.217,74.83 56.54,76.153 56.54,77.76L56.54,91.42C56.54,93.027 55.217,94.35 53.61,94.35L45.67,94.36ZM76.17,70L76.17,91.42C76.17,93.027 74.847,94.35 73.24,94.35L65.29,94.35C63.683,94.35 62.36,93.027 62.36,91.42L62.36,70C62.36,68.393 63.683,67.07 65.29,67.07L73.23,67.07C73.233,67.07 73.237,67.07 73.24,67.07C74.847,67.07 76.17,68.393 76.17,70ZM95.84,55.46L95.84,91.36C95.84,92.98 94.529,94.322 92.91,94.36L85,94.36C83.381,94.322 82.07,92.98 82.07,91.36L82.07,55.46C82.07,53.84 83.381,52.498 85,52.46L92.9,52.46C94.523,52.492 95.84,53.837 95.84,55.46ZM99.47,36.46C99.801,38.064 98.761,39.657 97.16,40C95.553,40.344 93.947,39.306 93.6,37.7L92.38,32C86.956,40.821 79.952,48.567 71.72,54.85C64.736,60.119 56.927,64.195 48.61,66.91C40.995,69.459 33.029,70.805 25,70.9C23.65,70.9 22.85,70.85 22.77,70.84C21.205,70.728 19.977,69.409 19.977,67.84C19.977,66.19 21.335,64.832 22.985,64.832C23.057,64.832 23.128,64.835 23.2,64.84C23.272,64.845 23.79,64.84 24.87,64.84C32.352,64.733 39.773,63.472 46.87,61.1C63.79,55.5 77.37,44.62 87.25,28.74L81.71,30C81.554,30.025 81.396,30.037 81.238,30.037C79.592,30.037 78.238,28.683 78.238,27.037C78.238,25.684 79.153,24.491 80.46,24.14L93.19,21.42C94.797,21.076 96.403,22.114 96.75,23.72L99.47,36.46Z" style="fill:rgb(65,105,225);fill-rule:nonzero;"/>
    </g>
</svg>
