<?xml version="1.0" encoding="UTF-8" standalone="no"?><!DOCTYPE svg PUBLIC "-//W3C//DTD SVG 1.1//EN" "http://www.w3.org/Graphics/SVG/1.1/DTD/svg11.dtd"><svg width="100%" height="100%" viewBox="0 0 26 30" version="1.1" xmlns="http://www.w3.org/2000/svg" xmlns:xlink="http://www.w3.org/1999/xlink" xml:space="preserve" xmlns:serif="http://www.serif.com/" style="fill-rule:evenodd;clip-rule:evenodd;stroke-linejoin:round;stroke-miterlimit:2;"><path d="M24,24l-22,0l0,-1.632c0,-0.432 0.278,-0.815 0.691,-0.952c1.429,-0.473 3.869,-1.085 7.376,-1.32l0.933,-0.063l0,-5.033l4,0l0,3.043c-0.666,-0.029 -1.333,-0.043 -2,-0.043l0,2c5.258,0 8.729,0.892 10.33,1.424c0.4,0.133 0.67,0.513 0.67,0.944l0,1.632Zm-2,3c0,0.552 -0.449,1 -1,1l-16,0c-0.551,0 -1,-0.448 -1,-1l0,-1l18,0l0,1Zm-13.657,-23.849c-0.046,-0.288 0.038,-0.582 0.229,-0.802c0.189,-0.223 0.467,-0.351 0.759,-0.349l7.338,0c0.296,0 0.566,0.124 0.759,0.349c0.193,0.225 0.274,0.51 0.229,0.802l-1.385,9c-0.071,0.487 -0.495,0.852 -0.988,0.849l-4.568,0c-0.493,0.003 -0.917,-0.362 -0.988,-0.849l-1.385,-9Zm15.617,16.374c-1.262,-0.419 -3.603,-1.047 -6.96,-1.35l0,-3.722c0.673,-0.465 1.125,-1.188 1.249,-1.997l1.385,-9c0.023,-0.151 0.035,-0.304 0.035,-0.457c0,-1.645 -1.354,-2.999 -2.999,-2.999l-7.34,0c-1.645,0 -2.999,1.354 -2.999,2.999c-0,0.153 0.012,0.306 0.035,0.457l1.385,9c0.124,0.809 0.576,1.532 1.249,1.997l-0,3.72c-3.225,0.288 -5.53,0.879 -6.937,1.345c-1.228,0.403 -2.064,1.557 -2.063,2.85l-0,3.632l2,0l-0,1c-0,1.654 1.346,3 3,3l16,0c1.654,0 3,-1.346 3,-3l0,-1l2,0l0,-3.632c0,-1.295 -0.82,-2.437 -2.04,-2.843Z" style="fill:#2196f3;"/></svg>