<?xml version="1.0" encoding="UTF-8" standalone="no"?>
<!DOCTYPE svg PUBLIC "-//W3C//DTD SVG 1.1//EN" "http://www.w3.org/Graphics/SVG/1.1/DTD/svg11.dtd">
<svg width="100%" height="100%" viewBox="0 0 26 30" version="1.1" xmlns="http://www.w3.org/2000/svg" xmlns:xlink="http://www.w3.org/1999/xlink" xml:space="preserve" xmlns:serif="http://www.serif.com/" style="fill-rule:evenodd;clip-rule:evenodd;stroke-linejoin:round;stroke-miterlimit:2;">
    <path d="M24,24L2,24L2,22.368C2,21.936 2.278,21.553 2.691,21.416C4.12,20.943 6.56,20.331 10.067,20.096L11,20.033L11,15L15,15L15,18.043C14.334,18.014 13.667,18 13,18L13,20C18.258,20 21.729,20.892 23.33,21.424C23.73,21.557 24,21.937 24,22.368L24,24ZM22,27C22,27.552 21.551,28 21,28L5,28C4.449,28 4,27.552 4,27L4,26L22,26L22,27ZM8.343,3.151C8.297,2.863 8.381,2.569 8.572,2.349C8.761,2.126 9.039,1.998 9.331,2L16.669,2C16.965,2 17.235,2.124 17.428,2.349C17.621,2.574 17.702,2.859 17.657,3.151L16.272,12.151C16.201,12.638 15.777,13.003 15.284,13L10.716,13C10.223,13.003 9.799,12.638 9.728,12.151L8.343,3.151ZM23.96,19.525C22.698,19.106 20.357,18.478 17,18.175L17,14.453C17.673,13.988 18.125,13.265 18.249,12.456L19.634,3.456C19.657,3.305 19.669,3.152 19.669,2.999C19.669,1.354 18.315,-0 16.67,-0L9.33,-0C7.685,-0 6.331,1.354 6.331,2.999C6.331,3.152 6.343,3.305 6.366,3.456L7.751,12.456C7.875,13.265 8.327,13.988 9,14.453L9,18.173C5.775,18.461 3.47,19.052 2.063,19.518C0.835,19.921 -0.001,21.075 0,22.368L0,26L2,26L2,27C2,28.654 3.346,30 5,30L21,30C22.654,30 24,28.654 24,27L24,26L26,26L26,22.368C26,21.073 25.18,19.931 23.96,19.525Z" style="fill:rgb(65,105,225);"/>
</svg>
