<?xml version="1.0" encoding="UTF-8" standalone="no"?>
<!DOCTYPE svg PUBLIC "-//W3C//DTD SVG 1.1//EN" "http://www.w3.org/Graphics/SVG/1.1/DTD/svg11.dtd">
<svg width="100%" height="100%" viewBox="0 0 90 90" version="1.1" xmlns="http://www.w3.org/2000/svg" xmlns:xlink="http://www.w3.org/1999/xlink" xml:space="preserve" xmlns:serif="http://www.serif.com/" style="fill-rule:evenodd;clip-rule:evenodd;stroke-linejoin:round;stroke-miterlimit:2;">
    <g transform="matrix(1,0,0,1,-5,-5)">
        <path d="M35,63L29,63L29,51.34C29,47.05 26.84,43.24 23.58,41.02C26.84,38.88 29,35.19 29,31C29,24.38 23.62,19 17,19C10.38,19 5,24.38 5,31C5,35.17 7.14,38.85 10.38,41C9.82,41.37 9.29,41.78 8.79,42.24C6.38,44.5 5,47.7 5,51L5,77C5,78.1 5.9,79 7,79L25,79L25,93C25,94.1 25.9,95 27,95L39,95C40.1,95 41,94.1 41,93L41,69C41,65.69 38.31,63 35,63ZM17,23C21.41,23 25,26.59 25,31C25,35.41 21.41,39 17,39C12.59,39 9,35.41 9,31C9,26.59 12.59,23 17,23ZM37,91L29,91L29,77C29,75.9 28.1,75 27,75L9,75L9,51C9,48.76 9.9,46.69 11.53,45.16C13.16,43.63 15.31,42.88 17.54,43.02C21.73,43.29 25,46.95 25,51.35L25,65C25,66.1 25.9,67 27,67L35,67C36.1,67 37,67.9 37,69L37,91ZM89.62,41C92.86,38.85 95,35.17 95,31C95,24.38 89.62,19 83,19C76.38,19 71,24.38 71,31C71,35.19 73.16,38.88 76.42,41.03C73.16,43.24 71,47.05 71,51.34L71,63L65,63C61.69,63 59,65.69 59,69L59,93C59,94.1 59.9,95 61,95L73,95C74.1,95 75,94.1 75,93L75,79L93,79C94.1,79 95,78.1 95,77L95,51C95,47.7 93.62,44.5 91.21,42.24C90.71,41.78 90.17,41.37 89.62,41ZM83,23C87.41,23 91,26.59 91,31C91,35.41 87.41,39 83,39C78.59,39 75,35.41 75,31C75,26.59 78.59,23 83,23ZM91,75L73,75C71.9,75 71,75.9 71,77L71,91L63,91L63,69C63,67.9 63.9,67 65,67L73,67C74.1,67 75,66.1 75,65L75,51.34C75,46.94 78.28,43.29 82.46,43.01C84.7,42.87 86.84,43.63 88.47,45.16C90.1,46.69 91,48.76 91,51L91,75ZM66,23L66,11C66,7.69 63.31,5 60,5L40,5C36.69,5 34,7.69 34,11L34,23C34,26.31 36.69,29 40,29L43.89,29L48.3,36.06C48.67,36.64 49.31,37 50,37C50.69,37 51.33,36.64 51.7,36.06L56.11,29L60,29C63.31,29 66,26.31 66,23ZM55,25C54.31,25 53.67,25.36 53.3,25.94L50,31.23L46.7,25.94C46.33,25.36 45.69,25 45,25L40,25C38.9,25 38,24.1 38,23L38,11C38,9.9 38.9,9 40,9L60,9C61.1,9 62,9.9 62,11L62,23C62,24.1 61.1,25 60,25L55,25Z" style="fill:rgb(65,105,225);fill-rule:nonzero;"/>
    </g>
</svg>
