<?xml version="1.0" encoding="UTF-8" standalone="no"?>
<!DOCTYPE svg PUBLIC "-//W3C//DTD SVG 1.1//EN" "http://www.w3.org/Graphics/SVG/1.1/DTD/svg11.dtd">
<svg width="100%" height="100%" viewBox="0 0 460 468" version="1.1" xmlns="http://www.w3.org/2000/svg" xmlns:xlink="http://www.w3.org/1999/xlink" xml:space="preserve" xmlns:serif="http://www.serif.com/" style="fill-rule:evenodd;clip-rule:evenodd;stroke-linejoin:round;stroke-miterlimit:2;">
    <g transform="matrix(1,0,0,1,-26.424,-22)">
        <g transform="matrix(0.707107,-0.707107,0.707107,0.707107,-160.286,380.706)">
            <rect x="373.41" y="372.002" width="11.999" height="23.667" style="fill:rgb(65,105,225);"/>
        </g>
        <g transform="matrix(0.707107,-0.707107,0.707107,0.707107,-167.361,397.787)">
            <rect x="377.223" y="394.283" width="38.536" height="13.268" style="fill:rgb(65,105,225);"/>
        </g>
        <path d="M423.292,400.468L413.91,409.85L471.228,467.168C472.353,468.293 472.986,469.82 472.986,471.411C472.986,474.703 470.277,477.411 466.985,477.411C465.395,477.411 463.868,476.779 462.743,475.654L405.425,418.335L396.042,427.718L458.1,489.775C459.15,489.913 460.208,489.982 461.267,489.982C474.592,489.982 485.557,479.017 485.557,465.692C485.557,464.634 485.488,463.576 485.35,462.526L423.292,400.468Z" style="fill:rgb(65,105,225);fill-rule:nonzero;"/>
        <rect x="110.138" y="153.927" width="37.474" height="161.156" style="fill:rgb(65,105,225);"/>
        <rect x="26.424" y="195.154" width="37.474" height="119.929" style="fill:rgb(65,105,225);"/>
        <path d="M231.324,184.193L231.324,104.453L193.852,104.453L193.852,214.672C196.297,211.719 198.899,208.857 201.659,206.086C210.391,197.339 220.392,189.959 231.324,184.193Z" style="fill:rgb(65,105,225);fill-rule:nonzero;"/>
        <path d="M315.038,173.03L315.038,22L277.565,22L277.565,170.576C290.108,169.472 302.746,170.3 315.038,173.03Z" style="fill:rgb(65,105,225);fill-rule:nonzero;"/>
        <path d="M367.052,371.477C387.809,350.656 399.476,322.425 399.476,293.025C399.476,244.102 367.168,200.667 320.312,186.597C319.675,186.519 319.055,186.339 318.476,186.064C308.852,183.39 298.909,182.038 288.92,182.045C283.403,182.047 277.893,182.45 272.434,183.251C261.248,184.882 250.379,188.221 240.207,193.151C240.015,193.256 239.817,193.351 239.615,193.434C201.727,212.071 177.627,250.782 177.627,293.006C177.627,353.88 227.719,403.972 288.593,403.972C318.009,403.972 346.25,392.275 367.052,371.477ZM275.7,208.287C280.513,207.442 285.391,207.017 290.278,207.017C336.535,207.017 374.599,245.081 374.599,291.338C374.599,310.576 368.015,329.246 355.948,344.229L364.595,344.229C367.887,344.229 370.595,346.937 370.595,350.229C370.595,353.521 367.887,356.229 364.595,356.229L341.1,356.229C337.808,356.229 335.1,353.521 335.1,350.229L335.1,326.729C335.1,323.437 337.808,320.729 341.1,320.729C344.392,320.729 347.1,323.437 347.1,326.729L347.1,336.059C357.134,323.312 362.593,307.552 362.593,291.329C362.593,251.658 329.948,219.013 290.277,219.013C286.083,219.013 281.896,219.378 277.765,220.104C277.424,220.164 277.079,220.193 276.733,220.193C273.441,220.193 270.732,217.485 270.732,214.193C270.732,211.289 272.84,208.782 275.7,208.282L275.7,208.287ZM289.107,299.306C289.105,299.306 289.104,299.306 289.102,299.306C277.659,299.306 268.243,289.89 268.243,278.447C268.243,269.262 274.31,261.108 283.107,258.468L283.107,255.412C283.107,252.12 285.815,249.412 289.107,249.412C292.399,249.412 295.107,252.12 295.107,255.412L295.107,258.468C303.897,261.117 309.959,269.262 309.972,278.442C309.972,281.734 307.264,284.442 303.972,284.442C300.68,284.442 297.972,281.734 297.972,278.442C297.972,273.579 293.971,269.578 289.108,269.578C284.245,269.578 280.244,273.579 280.244,278.442C280.244,283.304 284.245,287.305 289.107,287.306C289.11,287.306 289.113,287.306 289.116,287.306C300.558,287.306 309.975,296.722 309.975,308.165C309.975,317.351 303.906,325.506 295.107,328.145L295.107,331.877C295.107,335.169 292.399,337.877 289.107,337.877C285.815,337.877 283.107,335.169 283.107,331.877L283.107,328.145C274.319,325.494 268.259,317.349 268.244,308.17C268.244,304.878 270.952,302.17 274.244,302.17C277.536,302.17 280.244,304.878 280.244,308.17C280.25,312.989 284.182,316.966 289,317.028L289.212,317.028C294.053,316.999 298.02,313.008 298.02,308.167C298.02,303.306 294.02,299.306 289.159,299.306C289.141,299.306 289.124,299.306 289.106,299.306L289.107,299.306ZM227.3,235.084C228.191,234.193 229.111,233.321 230.036,232.473L220.9,232.473C217.608,232.473 214.9,229.765 214.9,226.473C214.9,223.181 217.608,220.473 220.9,220.473L244.4,220.473C247.692,220.473 250.4,223.181 250.4,226.473L250.4,249.973C250.4,253.265 247.692,255.973 244.4,255.973C241.108,255.973 238.4,253.265 238.4,249.973L238.4,241.081C237.515,241.881 236.633,242.721 235.779,243.574C222.226,257.132 214.604,275.538 214.604,294.709C214.604,334.387 247.254,367.037 286.932,367.037C293.054,367.037 299.152,366.259 305.079,364.723C305.591,364.584 306.12,364.513 306.651,364.513C309.942,364.513 312.651,367.222 312.651,370.513C312.651,373.268 310.754,375.685 308.079,376.341C301.226,378.109 294.177,379.002 287.1,379C287.029,379 286.957,379 286.886,379C240.644,379 202.593,340.949 202.593,294.707C202.593,272.351 211.487,250.888 227.3,235.085L227.3,235.084Z" style="fill:rgb(65,105,225);fill-rule:nonzero;"/>
    </g>
</svg>
