<?xml version="1.0" encoding="UTF-8" standalone="no"?>
<!DOCTYPE svg PUBLIC "-//W3C//DTD SVG 1.1//EN" "http://www.w3.org/Graphics/SVG/1.1/DTD/svg11.dtd">
<svg width="100%" height="100%" viewBox="0 0 94 96" version="1.1" xmlns="http://www.w3.org/2000/svg" xmlns:xlink="http://www.w3.org/1999/xlink" xml:space="preserve" xmlns:serif="http://www.serif.com/" style="fill-rule:evenodd;clip-rule:evenodd;stroke-linejoin:round;stroke-miterlimit:2;">
    <g transform="matrix(1,0,0,1,-3.2,-2.5)">
        <path d="M62.7,88.5C58.9,90.3 54.6,91.4 50,91.4C45.5,91.4 41.2,90.4 37.4,88.6L37.4,91.6C37.4,92.8 37,94 36.4,94.9C40.6,96.6 45.2,97.6 50.1,97.6C55,97.6 59.6,96.6 63.8,94.9C63.1,94 62.8,92.8 62.8,91.6L62.8,88.5L62.7,88.5Z" style="fill:rgb(65,105,225);fill-rule:nonzero;"/>
        <path d="M68.8,39.1C73.2,42.8 76.5,47.7 78.2,53.3C79.4,52.9 80.8,52.7 82.1,52.7C82.9,52.7 83.7,52.8 84.5,52.9C82.3,44.2 76.8,36.7 69.4,31.9L69.4,36.3C69.5,37.3 69.3,38.3 68.8,39.1Z" style="fill:rgb(65,105,225);fill-rule:nonzero;"/>
        <path d="M21.7,53.3C23.4,47.7 26.7,42.8 31.1,39.1C30.7,38.3 30.4,37.3 30.4,36.3L30.4,31.9C23,36.7 17.6,44.2 15.3,52.9C16.1,52.8 16.9,52.7 17.7,52.7C19.2,52.7 20.5,52.9 21.7,53.3Z" style="fill:rgb(65,105,225);fill-rule:nonzero;"/>
        <circle cx="50" cy="11.3" r="8.8" style="fill:rgb(65,105,225);"/>
        <path d="M36.3,37.2L63.6,37.2C64.1,37.2 64.5,36.8 64.5,36.3L64.5,32.2C64.5,27.8 61.6,24 57.7,22.7C55.5,24.2 52.8,25.1 49.9,25.1C47,25.1 44.3,24.2 42.1,22.7C38.1,24.1 35.3,27.8 35.3,32.2L35.3,36.3C35.4,36.8 35.8,37.2 36.3,37.2Z" style="fill:rgb(65,105,225);fill-rule:nonzero;"/>
        <path d="M25.6,77.8C23.4,79.3 20.7,80.3 17.8,80.3C14.9,80.3 12.2,79.4 10,77.8C6.1,79.2 3.2,83 3.2,87.4L3.2,91.5C3.2,92 3.6,92.4 4.1,92.4L31.4,92.4C31.9,92.4 32.3,92 32.3,91.5L32.3,87.4C32.4,82.9 29.6,79.2 25.6,77.8Z" style="fill:rgb(65,105,225);fill-rule:nonzero;"/>
        <circle cx="17.8" cy="66.5" r="8.8" style="fill:rgb(65,105,225);"/>
        <path d="M90,77.8C87.8,79.3 85.1,80.3 82.2,80.3C79.3,80.3 76.6,79.4 74.4,77.8C70.5,79.2 67.7,83 67.7,87.4L67.7,91.5C67.7,92 68.1,92.4 68.6,92.4L95.9,92.4C96.4,92.4 96.8,92 96.8,91.5L96.8,87.4C96.8,82.9 94,79.2 90,77.8Z" style="fill:rgb(65,105,225);fill-rule:nonzero;"/>
        <circle cx="82.2" cy="66.5" r="8.8" style="fill:rgb(65,105,225);"/>
        <path d="M50,81.7C60.2,81.7 68.4,73.5 68.4,63.3C68.4,53.1 60.2,44.9 50,44.9C39.8,44.9 31.6,53.1 31.6,63.3C31.6,73.5 39.8,81.7 50,81.7ZM48.1,53.8L48.1,51.8C48.1,51.4 48.5,51 48.9,51L51.2,51C51.6,51 52,51.4 52,51.8L52,53.8C54.3,54.1 56.2,55.9 56.4,58.3C56.4,58.5 56.3,58.7 56.2,58.9C56,59.1 55.8,59.2 55.6,59.2L53.3,59.2C52.9,59.2 52.6,58.9 52.5,58.6C52.4,58 51.9,57.6 51.3,57.6L49.3,57.6C48.3,57.6 47.4,58.4 47.3,59.3C47.2,59.8 47.4,60.4 47.8,60.8C48.2,61.2 48.7,61.4 49.2,61.4L50.9,61.4C52.5,61.4 54.1,62.1 55.2,63.3C56.3,64.5 56.8,66.1 56.7,67.7C56.5,70.2 54.6,72.2 52,72.7L52,74.7C52,75.1 51.6,75.5 51.2,75.5L48.9,75.5C48.5,75.5 48.1,75.1 48.1,74.7L48.1,72.7C45.8,72.4 43.9,70.6 43.7,68.2C43.7,68 43.8,67.8 43.9,67.6C44.1,67.4 44.3,67.3 44.5,67.3L46.8,67.3C47.2,67.3 47.5,67.6 47.6,67.9C47.7,68.5 48.2,68.9 48.8,68.9L50.8,68.9C51.8,68.9 52.7,68.1 52.8,67.2C52.9,66.6 52.7,66.1 52.3,65.7C51.9,65.3 51.4,65.1 50.9,65.1L49.4,65.1C46.3,65.1 43.7,62.8 43.4,59.9C43.1,57.1 45.1,54.4 48.1,53.8Z" style="fill:rgb(65,105,225);fill-rule:nonzero;"/>
    </g>
</svg>
