<?xml version="1.0" encoding="UTF-8" standalone="no"?>
<!DOCTYPE svg PUBLIC "-//W3C//DTD SVG 1.1//EN" "http://www.w3.org/Graphics/SVG/1.1/DTD/svg11.dtd">
<svg width="100%" height="100%" viewBox="0 0 76 101" version="1.1" xmlns="http://www.w3.org/2000/svg" xmlns:xlink="http://www.w3.org/1999/xlink" xml:space="preserve" xmlns:serif="http://www.serif.com/" style="fill-rule:evenodd;clip-rule:evenodd;stroke-linejoin:round;stroke-miterlimit:2;">
    <g transform="matrix(1,0,0,1,-12.436,3.47605e-05)">
        <path d="M45.405,7.826L78.322,7.826L83.626,13.178C84.584,14.146 84.561,14.829 83.626,15.803L77.163,22.264L73.376,18.478L69.589,22.264L65.853,18.529L62.218,22.165L58.432,18.377L53.483,23.325L45.406,23.325L45.406,7.826L45.405,7.826Z" style="fill:rgb(65,105,225);fill-rule:nonzero;"/>
        <path d="M80.746,58.717L74.586,42.814C73.436,39.77 70.918,37.18 66.154,37.158L33.792,37.158C29.051,37.179 26.534,39.769 25.361,42.814L19.201,58.717C16.756,59.032 12.428,61.906 12.436,67.35L12.436,87.597L18.444,87.597L18.444,94.059C18.43,102.028 29.705,101.933 29.702,94.059L29.702,87.597L70.244,87.597L70.244,94.059C70.269,101.933 81.545,102.028 81.552,94.059L81.552,87.597L87.564,87.597L87.564,67.35C87.544,61.906 83.212,59.032 80.746,58.717ZM24.25,75.377C21.37,75.386 19.037,72.983 19.05,70.028C19.037,67.053 21.37,64.649 24.25,64.673C27.122,64.65 29.454,67.054 29.45,70.028C29.455,72.983 27.122,75.386 24.25,75.377ZM74.385,58.566L25.613,58.566L30.258,46.044C30.818,44.267 31.689,42.995 33.742,42.964L66.256,42.964C68.28,42.995 69.152,44.267 69.738,46.044L74.385,58.566ZM75.748,75.377C72.847,75.386 70.514,72.983 70.496,70.028C70.514,67.053 72.847,64.649 75.748,64.673C78.598,64.65 80.93,67.054 80.947,70.028C80.93,72.983 78.598,75.386 75.748,75.377Z" style="fill:rgb(65,105,225);fill-rule:nonzero;"/>
        <path d="M33.893,0C25.367,-0.018 18.463,6.957 18.444,15.55C18.463,24.162 25.367,31.137 33.893,31.151C42.401,31.137 49.305,24.162 49.293,15.55C49.305,6.957 42.401,-0.018 33.893,0ZM27.128,19.64C24.849,19.619 23.017,17.765 23.038,15.499C23.017,13.201 24.849,11.348 27.128,11.359C29.369,11.347 31.201,13.201 31.218,15.499C31.202,17.765 29.37,19.619 27.128,19.64Z" style="fill:rgb(65,105,225);fill-rule:nonzero;"/>
    </g>
</svg>
